<?xml version="1.0" standalone="no"?>
<!DOCTYPE svg PUBLIC "-//W3C//DTD SVG 20010904//EN"
 "http://www.w3.org/TR/2001/REC-SVG-20010904/DTD/svg10.dtd">
<svg version="1.0" xmlns="http://www.w3.org/2000/svg"
 width="512.000000pt" height="512.000000pt" viewBox="0 0 512.000000 512.000000"
 preserveAspectRatio="xMidYMid meet">

<g transform="translate(0.000000,512.000000) scale(0.100000,-0.100000)"
fill="#000000" stroke="none">
<path d="M725 4574 c-95 -16 -288 -77 -334 -105 -56 -34 -126 -222 -151 -407
-15 -110 -8 -330 15 -442 17 -88 69 -248 97 -303 15 -31 32 -45 81 -67 167
-75 338 -110 538 -110 194 0 355 33 521 107 55 25 58 28 88 99 134 322 131
676 -8 1036 -26 66 -27 67 -91 96 -95 42 -212 77 -320 96 -115 19 -324 20
-436 0z m525 -56 c52 -14 132 -40 178 -58 97 -39 100 -42 155 -215 49 -154 62
-238 61 -405 0 -159 -16 -252 -63 -393 -50 -146 -55 -153 -140 -188 -225 -94
-511 -118 -746 -64 -70 17 -224 69 -267 91 -87 45 -182 438 -163 679 12 168
76 392 128 450 26 29 140 75 257 103 121 30 126 30 325 27 155 -2 193 -6 275
-27z"/>
<path d="M890 4447 c-136 -38 -203 -151 -166 -279 11 -40 32 -72 85 -131 99
-111 112 -151 118 -379 4 -142 8 -178 19 -178 11 0 14 27 14 133 1 158 19 272
54 330 14 23 52 73 85 111 62 70 81 112 81 176 0 151 -143 258 -290 217z"/>
<path d="M577 4086 c-70 -25 -100 -66 -111 -151 -15 -105 20 -144 170 -190
165 -52 228 -110 249 -227 19 -102 41 9 31 151 -14 191 -44 279 -120 357 -69
71 -136 89 -219 60z"/>
<path d="M1198 4091 c-75 -24 -130 -79 -173 -174 -32 -70 -45 -157 -45 -309 0
-107 2 -128 15 -128 9 0 15 9 15 21 0 71 60 163 129 198 20 11 70 29 111 41
154 47 186 79 177 180 -3 31 -12 71 -21 88 -33 64 -138 105 -208 83z"/>
<path d="M462 3765 c-30 -65 -5 -161 50 -195 30 -20 42 -21 145 -15 124 7 144
2 168 -45 9 -17 23 -30 32 -30 13 0 14 7 9 41 -15 92 -70 148 -179 180 -141
41 -170 52 -188 70 -24 24 -24 24 -37 -6z"/>
<path d="M1395 3771 c-11 -11 -60 -32 -110 -46 -154 -47 -208 -82 -240 -157
-15 -36 -21 -88 -10 -88 3 0 23 19 45 41 l39 42 63 -9 c142 -19 215 -1 249 62
18 34 17 111 -2 146 -14 28 -15 28 -34 9z"/>
<path d="M564 3385 c-22 -54 -18 -74 19 -90 36 -15 42 -12 51 26 4 19 1 29
-10 33 -24 9 -26 8 -19 -14 5 -14 2 -20 -9 -20 -20 0 -21 30 -1 56 13 16 16
17 24 4 8 -12 13 -12 22 -3 17 17 -6 43 -38 43 -18 0 -28 -9 -39 -35z"/>
<path d="M1260 3346 c0 -41 4 -66 11 -66 6 0 13 9 16 20 6 23 14 25 30 9 6 -6
16 -8 22 -5 14 9 -40 100 -62 104 -15 3 -17 -6 -17 -62z m40 4 c0 -5 -4 -10
-10 -10 -5 0 -10 5 -10 10 0 6 5 10 10 10 6 0 10 -4 10 -10z"/>
<path d="M671 3342 c-14 -70 -14 -72 3 -72 8 0 16 9 18 20 4 28 24 21 20 -7
-2 -15 2 -23 13 -23 10 0 15 10 15 34 0 19 5 38 10 41 23 14 3 43 -37 54 l-31
9 -11 -56z m59 8 c0 -5 -4 -10 -10 -10 -5 0 -10 5 -10 10 0 6 5 10 10 10 6 0
10 -4 10 -10z"/>
<path d="M1155 3370 c-9 -27 12 -97 31 -104 22 -9 54 11 54 34 0 25 -16 26
-29 3 -9 -16 -12 -16 -21 -3 -12 19 -13 70 -1 70 5 0 11 -5 13 -12 2 -6 9 -8
16 -4 20 12 1 36 -28 36 -20 0 -31 -6 -35 -20z"/>
<path d="M786 3358 c-13 -49 -7 -97 14 -108 31 -17 60 4 60 43 0 18 3 42 6 55
5 16 2 22 -10 22 -11 0 -16 -9 -16 -27 0 -39 -11 -73 -22 -73 -5 0 -8 23 -7
52 3 54 -13 78 -25 36z"/>
<path d="M900 3321 c0 -27 -3 -56 -6 -65 -4 -11 -1 -16 10 -16 10 0 16 9 16
24 0 18 6 25 23 28 48 7 26 78 -25 78 -15 0 -18 -8 -18 -49z m44 -2 c-3 -5
-10 -7 -15 -3 -5 3 -7 10 -3 15 3 5 10 7 15 3 5 -3 7 -10 3 -15z"/>
<path d="M1050 3356 c0 -7 3 -34 6 -60 6 -42 9 -46 35 -46 36 0 49 23 36 64
-5 17 -11 37 -13 44 -5 17 -64 16 -64 -2z m50 -16 c0 -5 -4 -10 -10 -10 -5 0
-10 5 -10 10 0 6 5 10 10 10 6 0 10 -4 10 -10z m5 -49 c3 -5 1 -12 -5 -16 -5
-3 -10 1 -10 9 0 18 6 21 15 7z"/>
<path d="M2081 4290 l-92 -180 41 0 c25 0 40 -5 40 -12 0 -7 -47 -194 -103
-415 l-103 -403 315 0 c177 0 335 5 360 11 119 27 243 124 295 233 40 84 47
183 16 254 -13 31 -40 68 -64 89 -26 23 -36 37 -28 40 30 11 99 72 133 117
105 139 88 317 -39 393 -75 44 -144 53 -429 53 l-251 0 -91 -180z m499 -153
c41 -20 39 -70 -3 -112 -34 -34 -38 -35 -110 -35 l-74 0 14 68 c8 37 16 73 18
80 6 16 122 16 155 -1z m-77 -379 c59 -31 61 -76 8 -129 l-39 -39 -91 0 c-83
0 -92 2 -87 18 2 9 14 50 26 90 l21 72 70 0 c39 0 80 -5 92 -12z"/>
<path d="M3794 4456 c-4 -12 -24 -13 -99 -9 -165 10 -353 -50 -501 -159 -153
-114 -252 -287 -285 -500 -23 -149 30 -318 130 -411 99 -93 215 -131 396 -131
66 0 140 6 163 13 l44 12 89 185 c49 102 89 187 89 188 0 1 -30 -12 -66 -30
-157 -76 -331 -68 -411 18 -60 64 -79 177 -46 273 24 70 110 156 186 184 108
39 241 24 341 -40 47 -29 51 -30 63 -13 22 30 175 305 171 308 -11 10 -243
126 -250 126 -5 0 -11 -6 -14 -14z"/>
<path d="M4133 4298 l-91 -173 44 -3 44 -3 -210 -420 -210 -419 209 0 208 0
41 98 40 97 126 3 126 3 0 -101 0 -100 190 0 190 0 0 58 c0 31 -11 289 -25
572 -14 283 -25 525 -25 538 l0 22 -283 0 -282 0 -92 -172z m327 -388 l0 -150
-65 0 c-36 0 -65 2 -65 5 0 3 23 60 51 128 28 67 55 132 60 145 5 12 11 22 14
22 3 0 5 -67 5 -150z"/>
<path d="M2817 1470 c1 -88 1 -160 -1 -160 -2 0 -18 13 -36 30 -92 86 -269 58
-357 -58 -93 -122 -87 -344 12 -459 94 -110 270 -115 362 -10 l31 36 7 -50 7
-49 69 0 c66 0 69 1 65 23 -3 12 -5 210 -5 440 l-1 417 -77 0 -78 0 2 -160z
m-81 -216 c49 -23 74 -71 81 -153 7 -82 -9 -156 -40 -189 -92 -99 -228 -49
-257 95 -36 172 84 309 216 247z"/>
<path d="M301 1364 c-28 -15 -59 -37 -68 -50 -23 -36 -33 -29 -33 21 l0 45
-65 0 -65 0 0 -315 0 -315 75 0 75 0 0 201 c0 218 6 249 58 289 36 29 106 27
137 -4 37 -37 45 -87 45 -293 l0 -193 75 0 75 0 0 213 c0 227 3 242 56 282 31
23 107 19 131 -7 41 -45 43 -61 43 -277 l0 -211 75 0 75 0 2 193 c3 223 -2
280 -32 343 -61 124 -236 140 -343 30 -23 -24 -42 -36 -44 -29 -10 29 -50 67
-87 84 -59 27 -122 24 -185 -7z"/>
<path d="M1245 1383 c-46 -10 -115 -35 -120 -44 -5 -6 11 -81 20 -96 1 -2 25
6 53 17 56 21 144 26 186 10 28 -10 51 -42 61 -80 6 -26 6 -26 -90 -38 -53 -7
-119 -22 -146 -33 -118 -51 -170 -181 -114 -290 35 -66 130 -105 217 -88 24 4
46 8 50 9 3 0 27 16 52 35 l45 34 7 -34 6 -35 67 0 67 0 -3 103 c-2 56 -4 163
-6 237 -2 106 -7 142 -21 170 -30 58 -77 99 -130 115 -46 14 -156 18 -201 8z
m203 -394 c-4 -67 -6 -73 -41 -105 -31 -29 -44 -34 -84 -34 -62 0 -93 28 -93
82 0 22 5 48 10 59 19 34 101 65 184 68 l28 1 -4 -71z"/>
<path d="M1953 1365 c-29 -15 -63 -41 -75 -58 l-23 -32 -5 50 -5 50 -66 3 -67
3 2 -316 1 -315 78 0 77 0 0 200 c0 219 6 250 55 288 20 16 42 22 79 22 44 0
56 -4 78 -27 40 -43 48 -92 48 -295 l0 -188 76 0 75 0 -3 238 c-3 232 -4 239
-29 287 -37 73 -90 106 -176 112 -59 4 -75 1 -120 -22z"/>
<path d="M3090 1065 l0 -315 78 0 77 0 -3 315 -3 315 -74 0 -75 0 0 -315z"/>
<path d="M3360 1065 l0 -315 80 0 80 0 0 190 c0 171 2 195 20 230 24 47 69 73
127 74 l43 1 0 68 c0 76 -2 77 -85 56 -43 -11 -115 -73 -115 -99 0 -6 -4 -10
-10 -10 -6 0 -10 27 -10 60 l0 60 -65 0 -65 0 0 -315z"/>
<path d="M3790 1065 l0 -315 80 0 80 0 -2 313 -3 312 -77 3 -78 3 0 -316z"/>
</g>
</svg>
