<?xml version="1.0" standalone="no"?>
<!DOCTYPE svg PUBLIC "-//W3C//DTD SVG 20010904//EN"
 "http://www.w3.org/TR/2001/REC-SVG-20010904/DTD/svg10.dtd">
<svg version="1.0" xmlns="http://www.w3.org/2000/svg"
 width="512.000000pt" height="256.000000pt" viewBox="0 0 512.000000 256.000000"
 preserveAspectRatio="xMidYMid meet">

<g transform="translate(0.000000,256.000000) scale(0.100000,-0.100000)"
fill="#000000" stroke="none">
<path d="M770 2023 c-120 -19 -256 -57 -352 -100 -53 -24 -58 -29 -87 -94
-125 -280 -134 -635 -23 -959 46 -135 55 -148 125 -180 166 -75 338 -110 537
-110 192 0 329 27 497 97 l82 35 35 91 c47 123 63 183 81 302 34 229 3 469
-93 716 -26 69 -29 72 -82 96 -91 41 -219 80 -319 97 -87 15 -330 20 -401 9z
m435 -54 c55 -11 146 -38 203 -61 118 -46 118 -46 170 -208 49 -154 66 -259
66 -410 0 -188 -24 -315 -95 -486 l-30 -72 -77 -32 c-272 -114 -594 -124 -877
-26 -173 59 -175 62 -230 220 -103 303 -94 637 26 905 l31 70 76 32 c93 38
242 77 342 89 104 12 276 3 395 -21z"/>
<path d="M895 1891 c-119 -31 -179 -105 -179 -221 0 -79 11 -101 98 -199 93
-105 107 -152 114 -378 3 -139 7 -173 18 -173 11 0 14 26 14 128 1 239 24 320
127 433 33 37 68 87 78 113 39 101 -5 227 -95 273 -50 26 -128 36 -175 24z"/>
<path d="M577 1526 c-70 -25 -100 -66 -111 -151 -14 -103 21 -144 159 -186 55
-17 119 -42 143 -56 56 -32 98 -91 113 -159 7 -30 16 -54 20 -54 28 0 20 244
-12 369 -23 89 -54 145 -108 194 -60 54 -130 69 -204 43z"/>
<path d="M1181 1526 c-58 -21 -108 -72 -146 -149 -44 -89 -55 -155 -55 -324 0
-112 2 -133 15 -133 9 0 15 9 15 21 0 42 24 100 58 139 39 47 99 79 192 104
122 34 170 78 170 158 0 141 -121 231 -249 184z"/>
<path d="M462 1205 c-30 -65 -5 -161 50 -195 30 -20 42 -21 145 -15 124 7 144
2 168 -45 9 -17 23 -30 32 -30 13 0 14 7 9 41 -15 96 -69 147 -193 184 -128
39 -174 57 -180 72 -8 20 -19 16 -31 -12z"/>
<path d="M1392 1209 c-13 -10 -56 -28 -95 -40 -159 -46 -215 -80 -248 -153
-17 -39 -26 -96 -14 -96 3 0 23 19 45 41 l39 42 63 -9 c144 -20 192 -8 242 60
25 33 27 106 5 148 -14 26 -14 26 -37 7z"/>
<path d="M564 825 c-19 -46 -18 -74 4 -81 9 -3 25 -9 34 -14 13 -7 19 -3 27
22 9 24 8 34 -1 40 -17 10 -26 10 -33 -2 -3 -5 -1 -10 4 -10 6 0 11 -4 11 -10
0 -5 -7 -10 -15 -10 -19 0 -19 31 0 56 13 16 16 17 25 4 9 -13 11 -13 19 0 13
20 -5 40 -36 40 -18 0 -28 -9 -39 -35z"/>
<path d="M1260 785 c0 -40 4 -65 11 -65 6 0 13 9 16 20 6 23 14 25 30 9 6 -6
16 -8 22 -5 14 9 -46 106 -65 106 -11 0 -14 -16 -14 -65z m40 5 c0 -5 -4 -10
-10 -10 -5 0 -10 5 -10 10 0 6 5 10 10 10 6 0 10 -4 10 -10z"/>
<path d="M671 788 c-6 -27 -11 -56 -11 -64 0 -22 28 -16 32 6 4 28 24 21 20
-7 -2 -15 2 -23 13 -23 10 0 15 10 15 34 0 19 5 38 10 41 23 14 3 43 -37 54
-30 9 -30 8 -42 -41z m59 8 c0 -3 -4 -8 -10 -11 -5 -3 -10 -1 -10 4 0 6 5 11
10 11 6 0 10 -2 10 -4z"/>
<path d="M1156 814 c-11 -27 6 -94 25 -105 25 -13 59 5 59 31 0 25 -16 26 -29
3 -9 -16 -12 -16 -21 -3 -12 19 -13 70 -1 70 5 0 11 -5 13 -12 2 -6 9 -8 16
-4 6 3 9 13 5 21 -7 20 -59 19 -67 -1z"/>
<path d="M786 798 c-13 -49 -7 -97 14 -108 31 -17 60 4 60 43 0 18 3 42 6 55
5 16 2 22 -10 22 -11 0 -16 -9 -16 -33 0 -18 -7 -42 -15 -53 -14 -18 -15 -15
-13 35 2 56 -14 81 -26 39z"/>
<path d="M900 761 c0 -27 -3 -56 -6 -65 -4 -11 -1 -16 10 -16 10 0 16 9 16 24
0 18 6 25 23 28 48 7 26 78 -25 78 -15 0 -18 -8 -18 -49z m44 -2 c-3 -5 -10
-7 -15 -3 -5 3 -7 10 -3 15 3 5 10 7 15 3 5 -3 7 -10 3 -15z"/>
<path d="M1050 796 c0 -7 3 -34 6 -60 6 -42 9 -46 35 -46 36 0 49 23 36 64 -5
17 -11 37 -13 44 -5 17 -64 16 -64 -2z m50 -16 c0 -5 -4 -10 -10 -10 -5 0 -10
5 -10 10 0 6 5 10 10 10 6 0 10 -4 10 -10z m5 -49 c3 -5 1 -12 -5 -16 -5 -3
-10 1 -10 9 0 18 6 21 15 7z"/>
<path d="M2083 1738 c-48 -95 -89 -176 -91 -180 -2 -5 15 -8 37 -8 23 0 41 -4
41 -9 0 -10 -197 -787 -205 -809 -4 -11 59 -13 338 -10 l342 3 77 37 c98 47
168 115 211 206 28 58 32 78 32 147 0 94 -21 144 -82 195 -24 21 -33 34 -25
37 7 3 35 23 63 45 161 127 185 362 48 455 -81 55 -92 57 -406 61 l-292 4 -88
-174z m505 -164 c34 -24 29 -66 -13 -109 -35 -34 -38 -35 -111 -35 -58 0 -75
3 -71 13 2 7 10 39 17 72 7 33 14 63 17 68 8 14 138 8 161 -9z m-67 -392 c27
-24 30 -32 25 -60 -4 -17 -23 -45 -42 -62 -33 -29 -39 -30 -124 -30 -50 0 -90
1 -90 3 0 4 40 150 45 165 3 8 28 12 80 12 68 0 78 -3 106 -28z"/>
<path d="M3793 1899 c-7 -7 -61 -12 -140 -13 -116 -1 -137 -5 -223 -34 -132
-46 -221 -101 -315 -196 -204 -206 -270 -519 -154 -736 86 -161 281 -251 514
-236 166 11 152 -1 255 213 50 102 90 187 90 189 0 1 -26 -11 -57 -27 -160
-81 -338 -76 -420 13 -67 71 -84 195 -41 290 52 113 150 178 280 186 94 6 160
-9 234 -54 32 -19 61 -31 64 -27 11 13 181 316 178 318 -18 12 -240 125 -246
125 -4 0 -13 -5 -19 -11z"/>
<path d="M4133 1743 c-48 -92 -89 -171 -91 -175 -2 -5 17 -8 42 -8 l46 0 -210
-420 -210 -420 208 0 208 0 40 98 40 97 127 3 127 3 0 -101 0 -100 190 0 190
0 0 43 c0 23 -11 269 -25 547 -14 278 -25 526 -25 553 l0 47 -284 0 -285 0
-88 -167z m327 -393 l0 -150 -65 0 c-36 0 -65 3 -65 8 0 4 20 55 44 112 24 58
51 122 59 143 9 20 18 37 21 37 4 0 6 -67 6 -150z"/>
</g>
</svg>
