<?xml version="1.0" standalone="no"?>
<!DOCTYPE svg PUBLIC "-//W3C//DTD SVG 20010904//EN"
 "http://www.w3.org/TR/2001/REC-SVG-20010904/DTD/svg10.dtd">
<svg version="1.0" xmlns="http://www.w3.org/2000/svg"
 width="512.000000pt" height="256.000000pt" viewBox="0 0 512.000000 256.000000"
 preserveAspectRatio="xMidYMid meet">

<g transform="translate(0.000000,256.000000) scale(0.100000,-0.100000)"
fill="#000000" stroke="none">
<path d="M2817 1470 c1 -88 1 -160 -1 -160 -2 0 -18 13 -36 30 -92 86 -269 58
-357 -58 -93 -122 -87 -344 12 -459 94 -110 270 -115 362 -10 l31 36 7 -50 7
-49 69 0 c66 0 69 1 65 23 -3 12 -5 210 -5 440 l-1 417 -77 0 -78 0 2 -160z
m-81 -216 c49 -23 74 -71 81 -153 7 -82 -9 -156 -40 -189 -92 -99 -228 -49
-257 95 -36 172 84 309 216 247z"/>
<path d="M301 1364 c-28 -15 -59 -37 -68 -50 -23 -36 -33 -29 -33 21 l0 45
-65 0 -65 0 0 -315 0 -315 75 0 75 0 0 201 c0 218 6 249 58 289 36 29 106 27
137 -4 37 -37 45 -87 45 -293 l0 -193 75 0 75 0 0 213 c0 227 3 242 56 282 31
23 107 19 131 -7 41 -45 43 -61 43 -277 l0 -211 75 0 75 0 2 193 c3 223 -2
280 -32 343 -61 124 -236 140 -343 30 -23 -24 -42 -36 -44 -29 -10 29 -50 67
-87 84 -59 27 -122 24 -185 -7z"/>
<path d="M1245 1383 c-46 -10 -115 -35 -120 -44 -5 -6 11 -81 20 -96 1 -2 25
6 53 17 56 21 144 26 186 10 28 -10 51 -42 61 -80 6 -26 6 -26 -90 -38 -53 -7
-119 -22 -146 -33 -118 -51 -170 -181 -114 -290 35 -66 130 -105 217 -88 24 4
46 8 50 9 3 0 27 16 52 35 l45 34 7 -34 6 -35 67 0 67 0 -3 103 c-2 56 -4 163
-6 237 -2 106 -7 142 -21 170 -30 58 -77 99 -130 115 -46 14 -156 18 -201 8z
m203 -394 c-4 -67 -6 -73 -41 -105 -31 -29 -44 -34 -84 -34 -62 0 -93 28 -93
82 0 22 5 48 10 59 19 34 101 65 184 68 l28 1 -4 -71z"/>
<path d="M1953 1365 c-29 -15 -63 -41 -75 -58 l-23 -32 -5 50 -5 50 -66 3 -67
3 2 -316 1 -315 78 0 77 0 0 200 c0 219 6 250 55 288 20 16 42 22 79 22 44 0
56 -4 78 -27 40 -43 48 -92 48 -295 l0 -188 76 0 75 0 -3 238 c-3 232 -4 239
-29 287 -37 73 -90 106 -176 112 -59 4 -75 1 -120 -22z"/>
<path d="M3090 1065 l0 -315 78 0 77 0 -3 315 -3 315 -74 0 -75 0 0 -315z"/>
<path d="M3360 1065 l0 -315 80 0 80 0 0 190 c0 171 2 195 20 230 24 47 69 73
127 74 l43 1 0 68 c0 76 -2 77 -85 56 -43 -11 -115 -73 -115 -99 0 -6 -4 -10
-10 -10 -6 0 -10 27 -10 60 l0 60 -65 0 -65 0 0 -315z"/>
<path d="M3790 1065 l0 -315 80 0 80 0 -2 313 -3 312 -77 3 -78 3 0 -316z"/>
</g>
</svg>
